<?xml version="1.0" standalone="no"?>
<!DOCTYPE svg PUBLIC "-//W3C//DTD SVG 20010904//EN"
 "http://www.w3.org/TR/2001/REC-SVG-20010904/DTD/svg10.dtd">
<svg version="1.0" xmlns="http://www.w3.org/2000/svg"
 width="600.000000pt" height="600.000000pt" viewBox="0 0 600.000000 600.000000"
 preserveAspectRatio="xMidYMid meet">

<g transform="translate(0.000000,600.000000) scale(0.100000,-0.100000)"
fill="#000000" stroke="none">
<path d="M380 3000 l0 -690 145 0 145 0 0 690 0 690 -145 0 -145 0 0 -690z"/>
<path d="M1107 3628 c-117 -214 -327 -617 -327 -628 0 -7 46 -99 102 -204 56
-105 137 -256 179 -336 l77 -145 200 -3 200 -2 58 107 59 108 202 5 202 5 -45
90 c-74 145 -63 135 -154 135 -44 0 -80 2 -80 5 0 9 162 316 165 313 4 -3 193
-365 325 -618 l75 -145 158 -3 c86 -1 157 0 157 3 0 4 -131 257 -291 563 -392
750 -419 802 -424 802 -7 0 -43 -68 -325 -607 -150 -288 -276 -523 -279 -523
-4 0 -24 35 -45 78 -21 42 -74 144 -117 226 l-79 148 19 32 c10 17 60 112 112
211 51 99 123 238 161 310 37 71 68 130 68 132 0 2 -72 3 -160 3 l-159 0 -34
-62z"/>
<path d="M2310 3513 c51 -97 109 -208 130 -247 20 -39 95 -181 165 -316 71
-135 160 -306 200 -380 39 -74 84 -161 100 -192 17 -32 32 -58 35 -58 3 0 49
84 103 188 147 284 393 754 554 1060 l65 122 -160 0 -159 0 -176 -337 c-212
-407 -220 -423 -228 -423 -4 0 -45 73 -91 163 -47 89 -137 260 -199 379 l-114
218 -158 0 -159 0 92 -177z"/>
<path d="M4540 3132 c0 -307 -3 -562 -7 -565 -3 -4 -34 46 -68 110 -456 873
-517 988 -525 996 -4 5 -61 -92 -125 -215 -65 -122 -161 -306 -215 -408 -202
-383 -369 -706 -376 -722 -6 -17 5 -18 149 -18 l156 0 62 118 c34 64 74 140
89 167 15 28 78 148 140 267 l113 218 17 -28 c26 -43 150 -279 150 -286 0 -3
-37 -6 -82 -8 l-83 -3 -58 -112 -58 -113 204 0 203 0 58 -110 57 -110 245 0
244 0 0 690 0 690 -145 0 -145 0 0 -558z"/>
<path d="M5276 3648 c-13 -24 -97 -179 -185 -346 l-162 -303 69 -127 c38 -70
111 -206 162 -302 51 -96 104 -194 117 -217 l25 -43 154 0 c93 0 154 4 154 10
0 8 -69 143 -280 543 l-72 137 137 263 c76 144 158 299 182 345 l45 82 -161 0
-160 0 -25 -42z"/>
</g>
</svg>
